<svg width="2200" height="2200" viewBox="00 00 2200 2200" fill="none" xmlns="http://www.w3.org/2000/svg">
<rect width="00" height="2200" fill="#1E1E1E"/>
<g clip-path="url(#clip0_0_1)">
<path d="M2200 0H0V2200H2200V0Z" fill="white"/>
<path d="M1940 1100C1940 1149.84 1935.66 1198.66 1927.34 1246.11C1858.19 1640.38 1514.08 1940 1100 1940C1087.28 1940 1074.63 1939.72 1062.05 1939.16C615.74 1919.31 260 1551.2 260 1100C260 636.08 636.08 260 1100 260C1563.92 260 1940 636.08 1940 1100Z" fill="#9D4EDD"/>
<path d="M1927.34 1246.11C1858.19 1640.38 1514.08 1940 1100 1940C1087.28 1940 1074.63 1939.72 1062.05 1939.16C874.99 1752.06 720.2 1597.15 718.99 1595.76C694.63 1574.67 681.39 1542.51 685.06 1509.15C693.21 1434.94 716.73 1361.07 770.49 1327.61C869.56 1265.96 967.9 1239.69 967.9 1239.69C971.37 1228.91 975.26 1193.23 977.3 1156.71C964.75 1143.68 952.32 1130.08 939.21 1117.19C918.03 1096.37 912.79 1067.98 906.25 1032.23C901.57 1030.15 898.9 1026.13 896.49 1022.45C896.47 1022.42 896.45 1022.38 896.42 1022.34C891.67 1020.28 888.98 1016.22 886.55 1012.51C886.53 1012.48 886.51 1012.44 886.48 1012.4C881.73 1010.34 879.04 1006.28 876.61 1002.58C873.65 998.04 872.48 992.61 871.38 987.31C867.39 968.24 863.4 949.18 859.42 930.12C856.42 915.8 853.41 901.13 855.44 886.64C856.42 879.79 858.85 872.61 864.48 868.58C870.1 864.55 879.5 865.52 882.32 871.85C882.32 871.85 873.2 782.12 873.2 789.67C865.58 781.21 859.55 762.79 862.07 748.55C864.59 734.32 869.12 720.47 871.38 706.2C873.84 690.52 873.59 674.35 878.09 659.13C884.43 637.68 899.6 620.1 915.04 603.91C925.98 592.45 937.29 581.31 949.62 571.38C974.33 551.52 1003.78 536.58 1035.29 533.05C1045.4 531.92 1055.6 531.97 1065.77 532.02C1077.17 532.08 1088.59 532.13 1100 532.19C1111.41 532.13 1122.83 532.08 1134.23 532.02C1144.4 531.97 1154.6 531.92 1164.71 533.05C1196.22 536.58 1225.67 551.52 1250.38 571.38C1261.15 580.05 1271.13 589.64 1280.77 599.57C1282.78 601.51 1638.99 957.72 1927.34 1246.11Z" fill="#7B2CBF"/>
<path d="M1453.46 1612.68C1391.3 1638.1 1279.94 1668 1100 1668C920.06 1668 808.703 1638.1 746.54 1612.68C705.214 1595.77 680.184 1553.53 685.057 1509.15C693.209 1434.94 716.733 1361.07 770.494 1327.61C869.563 1265.96 967.903 1239.69 967.903 1239.69C971.368 1228.91 975.262 1193.23 977.301 1156.71C964.754 1143.68 952.319 1130.08 939.205 1117.19C914.239 1092.65 911.43 1057.58 902.518 1012.35C886.141 1017 880.961 1009.21 876.613 1002.58C873.65 998.042 872.484 992.61 871.375 987.307C867.384 968.243 863.401 949.179 859.418 930.115C856.423 915.795 853.411 901.126 855.443 886.636C856.414 879.787 858.851 872.607 864.477 868.576C870.103 864.553 879.502 865.524 882.319 871.846C882.319 871.846 873.196 782.119 873.196 789.672C865.578 781.213 859.547 762.788 862.073 748.548C864.591 734.317 869.116 720.466 871.374 706.194C873.843 690.522 873.584 674.348 878.085 659.129C884.432 637.677 899.602 620.094 915.039 603.912C925.976 592.449 937.285 581.31 949.622 571.378C974.329 551.52 1003.78 536.577 1035.29 533.047C1045.4 531.922 1055.6 531.97 1065.76 532.019C1077.17 532.076 1088.58 532.132 1100 532.189C1111.41 532.132 1122.82 532.076 1134.23 532.019C1144.4 531.97 1154.6 531.922 1164.71 533.047C1196.21 536.577 1225.67 551.52 1250.37 571.378C1262.71 581.311 1274.02 592.45 1284.95 603.912C1300.39 620.094 1315.56 637.677 1321.91 659.129C1326.41 674.348 1326.15 690.522 1328.62 706.194C1330.88 720.466 1335.4 734.317 1337.92 748.548C1340.45 762.787 1334.42 781.212 1326.8 789.672C1326.8 782.119 1317.68 871.846 1317.68 871.846C1320.49 865.524 1329.89 864.552 1335.52 868.576C1341.14 872.607 1343.58 879.788 1344.55 886.636C1346.58 901.126 1343.57 915.795 1340.58 930.115C1336.59 949.179 1332.61 968.243 1328.62 987.307C1327.51 992.609 1326.34 998.041 1323.38 1002.58C1319.03 1009.21 1313.85 1017 1297.48 1012.35C1288.56 1057.58 1285.75 1092.65 1260.79 1117.19C1247.67 1130.07 1235.24 1143.67 1222.69 1156.71C1224.73 1193.23 1228.63 1228.91 1232.09 1239.69C1232.09 1239.69 1330.43 1265.96 1429.5 1327.61C1483.26 1361.07 1506.79 1434.94 1514.94 1509.15C1519.82 1553.53 1494.79 1595.78 1453.46 1612.68Z" fill="white"/>
</g>
<defs>
<clipPath id="clip0_0_1">
<rect width="2200" height="2200" fill="white"/>
</clipPath>
</defs>
</svg>
